<svg xmlns="http://www.w3.org/2000/svg" version="1.1" style="display: none;">

	<symbol id="triangle" viewBox="0 0 50 100">
		<polygon points="0,100 0,0 50,50 "/>
	</symbol>

	<symbol id="icon-x" viewBox="0 0 100 100" >
		<path d="M60.5,50l37.4-37.4c2.9-2.9,2.9-7.6,0-10.5c-2.9-2.9-7.6-2.9-10.5,0L50,39.5L12.6,2.2c-2.9-2.9-7.6-2.9-10.5,0s-2.9,7.6,0,10.5L39.5,50L2.2,87.4c-2.9,2.9-2.9,7.6,0,10.5c1.4,1.4,3.3,2.2,5.2,2.2s3.8-0.7,5.2-2.2L50,60.5l37.4,37.4c1.4,1.4,3.3,2.2,5.2,2.2s3.8-0.7,5.2-2.2c2.9-2.9,2.9-7.6,0-10.5L60.5,50z"/>
	</symbol>

	<symbol id="icon-arrow" viewBox="0 0 70 100">
		<path fill="#00ADEE" d="M57.4,100c-3.2,0-6.5-1.2-8.9-3.6L0,50L48.4,3.5c4.9-4.7,12.9-4.7,17.9,0c4.9,4.7,4.9,12.4,0,17.1L35.7,50l30.6,29.3c4.9,4.7,4.9,12.4,0,17.1C63.8,98.8,60.6,100,57.4,100z"/>
		<path fill="#00BFF2" d="M57.4,97c-2.4,0-4.9-0.9-6.7-2.7L4.5,50L50.7,5.7c3.7-3.5,9.7-3.5,13.4,0c3.7,3.5,3.7,9.3,0,12.9L31.3,50l32.8,31.5c3.7,3.6,3.7,9.3,0,12.9C62.2,96.1,59.8,97,57.4,97z"/>
		<path fill="#8DD7F7" d="M57.4,93.9c-1.6,0-3.2-0.6-4.5-1.8L8.9,50l44-42.2c2.5-2.4,6.5-2.4,8.9,0c2.5,2.4,2.5,6.2,0,8.6L26.8,50l35,33.6c2.5,2.4,2.5,6.2,0,8.6C60.6,93.3,59,93.9,57.4,93.9z"/>
		<path fill="#E1F3FC" d="M57.4,90.9c-0.8,0-1.6-0.3-2.2-0.9L13.4,50l41.7-40c1.2-1.2,3.2-1.2,4.5,0c1.2,1.2,1.2,3.1,0,4.3L22.3,50l37.3,35.7c1.2,1.2,1.2,3.1,0,4.3C59,90.6,58.2,90.9,57.4,90.9z"/>
	</symbol>

</svg>