<svg xmlns="http://www.w3.org/2000/svg" version="1.1" style="display: none;">

	<symbol id="triangle" viewBox="0 0 50 100">
		<polygon points="0,100 0,0 50,50 "/>
	</symbol>

	<symbol id="icon-x" viewBox="0 0 100 100" >
		<path d="M60.5,50l37.4-37.4c2.9-2.9,2.9-7.6,0-10.5c-2.9-2.9-7.6-2.9-10.5,0L50,39.5L12.6,2.2c-2.9-2.9-7.6-2.9-10.5,0s-2.9,7.6,0,10.5L39.5,50L2.2,87.4c-2.9,2.9-2.9,7.6,0,10.5c1.4,1.4,3.3,2.2,5.2,2.2s3.8-0.7,5.2-2.2L50,60.5l37.4,37.4c1.4,1.4,3.3,2.2,5.2,2.2s3.8-0.7,5.2-2.2c2.9-2.9,2.9-7.6,0-10.5L60.5,50z"/>
	</symbol>

</svg>